<?xml version="1.0" encoding="UTF-8"?> <svg xmlns="http://www.w3.org/2000/svg" width="168" height="100" viewBox="0 0 168 100" fill="none"><g clip-path="url(#clip0_3273_170)"><path d="M74.6781 40.1744C75.3256 39.1431 75.9024 38.1235 76.5853 37.1742C79.4932 33.096 83.3547 30.4474 88.3229 29.4747C92.3963 28.6778 96.3167 29.17 99.9781 31.0451C105.594 33.928 108.996 38.5454 110.374 44.6745C110.797 46.573 110.998 48.4833 110.903 50.4169C110.833 51.835 110.527 53.253 110.433 54.671C110.291 56.7688 109.561 58.7259 108.714 60.5658C107.56 63.0854 106.1 65.4761 104.358 67.6911C101.921 70.7849 99.1776 73.5975 96.3521 76.3281C92.5376 80.0314 88.6172 83.6292 84.8734 87.4028C81.3062 91.0006 78.1511 94.9617 75.3844 99.2157C74.6898 100.282 74.7369 100.247 73.9481 99.204C72.0174 96.6609 70.1337 94.071 68.0499 91.6568C65.8366 89.0903 63.4584 86.6645 61.0567 84.2737C58.6786 81.9065 56.1592 79.6798 53.7222 77.3594C52.0033 75.7187 50.2256 74.1366 48.6363 72.367C47.1293 70.6912 45.8225 68.8161 44.4451 67.0113C43.6916 66.0152 42.8675 65.0425 42.2671 63.9526C41.5019 62.5815 40.8661 61.1283 40.2893 59.6634C39.4063 57.3664 38.9118 54.964 38.6881 52.503C38.2408 47.8036 38.747 43.2917 41.1016 39.1196C43.9977 34.0101 48.236 30.6466 54.0872 29.463C58.1724 28.6427 62.1045 29.2052 65.813 31.0451C69.239 32.7444 71.8525 35.3578 73.8069 38.6157C73.9599 38.8735 74.1247 39.1313 74.266 39.4009C74.3955 39.6353 74.5132 39.8814 74.6545 40.1509" fill="#F58426"></path><path d="M18.095 68.1706C15.6463 69.0847 14.2924 69.3777 12.7619 69.3777C8.64135 69.3777 5.54506 67.6901 3.59075 65.7213C1.28325 63.3423 0 60.0141 0 56.8381C0 53.3693 1.45985 50.0762 3.59075 47.8495C5.68634 45.658 8.85326 44.0525 12.55 44.0525C13.6919 44.0525 15.5403 44.24 18.095 45.2947V52.8653C16.1054 50.3457 13.7626 50.1934 12.7266 50.1934C10.9488 50.1934 9.59496 50.7442 8.46475 51.7989C7.00491 53.1935 6.40449 55.092 6.40449 56.803C6.40449 58.514 7.07554 60.3539 8.32348 61.561C9.3595 62.5454 10.9842 63.2368 12.7383 63.2368C13.6566 63.2368 15.9406 63.1314 18.1068 60.682V68.1823L18.095 68.1706Z" fill="#455560"></path><path d="M35.6131 49.8183H28.1844V53.8732H34.9421V59.2406H28.1844V68.8269H22.0272V44.4392H35.6131V49.8183Z" fill="#455560"></path><path d="M38.2621 68.8269V44.4392H47.4332C49.1403 44.4392 51.1652 44.697 52.6251 46.3377C53.4374 47.2518 54.0849 48.7519 54.0849 50.9082C54.0849 51.9629 53.9083 52.877 53.4139 53.9083C52.9194 54.8576 52.3779 55.4084 51.4949 55.8068C52.7428 55.9475 53.979 56.5334 54.7324 57.2717C55.6978 58.221 56.3336 59.7914 56.3336 61.7368C56.3336 64.0454 55.4859 65.6158 54.5912 66.5299C53.3079 67.8776 51.0711 68.8269 48.1514 68.8269H38.2739H38.2621ZM44.4076 54.0607H45.5495C46.1853 54.0607 47.2566 53.9904 47.8924 53.2989C48.2809 52.9005 48.4575 52.2442 48.4575 51.6934C48.4575 51.0723 48.2455 50.4512 47.8924 50.0527C47.5039 49.6543 46.7504 49.3261 45.5495 49.3261H44.4076V54.0841V54.0607ZM44.4076 63.8931H45.7968C47.5039 63.8931 48.9284 63.7056 49.5994 62.9087C49.882 62.5805 50.0939 62.0297 50.0939 61.3383C50.0939 60.5766 49.8467 59.9554 49.4935 59.5804C48.7518 58.8187 47.2213 58.7718 45.6908 58.7718H44.4076V63.8931Z" fill="#455560"></path><path d="M58.4527 68.8269V44.4392H64.5982L75.9473 59.3578V44.4392H82.0928V68.8269H75.9473L64.5982 53.9083V68.8269H58.4527Z" fill="white"></path><path d="M97.5741 44.4392V61.2211C97.5741 63.4829 97.3976 65.1705 95.5492 67.069C93.9834 68.6745 92.135 69.366 89.7569 69.366C88.4383 69.366 87.3435 69.1433 86.0249 68.2644C85.1772 67.6784 84.3531 66.8346 83.6821 65.7799L87.6966 61.5375C87.7673 62.1938 88.1205 63.1079 88.5443 63.4712C88.8622 63.729 89.3684 63.9165 89.7216 63.9165C90.1101 63.9165 90.5457 63.729 90.7929 63.5181C91.3227 63.0024 91.4287 61.7954 91.4287 61.0688V44.4275H97.5859L97.5741 44.4392Z" fill="white"></path><path d="M79.7828 11.9535C79.7122 15.2115 79.3001 18.3874 78.1817 21.4461C77.7343 22.6532 77.2399 23.8837 76.039 24.6103C75.8271 24.7392 75.5917 24.8681 75.3562 24.9267C74.5556 25.1259 74.2966 24.9267 74.332 24.1063C74.4379 21.9852 73.9788 19.9343 73.6373 17.86C73.4254 16.5709 73.3195 15.2701 73.1782 13.9692C72.9781 12.0942 72.7191 10.2074 72.6366 8.3323C72.566 6.69161 72.6837 5.02748 72.7544 3.38679C72.7779 2.78911 72.9192 2.20315 73.0252 1.60547C73.3783 -0.421952 74.9206 -0.29304 76.0979 0.714811C77.9109 2.27347 78.7704 4.33605 79.1589 6.59785C79.465 8.36745 79.5709 10.1722 79.7593 11.9653" fill="#86B340"></path><path d="M104.706 11.368C104.624 13.9579 103.882 15.8682 102.87 17.6964C101.622 19.923 100.009 21.8801 98.1017 23.5677C96.7478 24.7748 95.3233 25.8529 93.3572 25.806C92.1681 25.7826 91.9091 25.4193 92.5566 24.4349C93.8281 22.513 94.3108 20.2746 95.2173 18.2003C96.583 15.0595 97.8898 11.8719 100.032 9.14134C100.586 8.43818 101.245 7.78191 102.328 7.82878C103.035 7.85222 103.494 8.15692 103.812 8.71944C104.353 9.68042 104.742 10.7 104.706 11.368Z" fill="#86B340"></path><path d="M49.9433 7.71216C51.2854 7.79419 51.9447 8.73173 52.5569 9.54035C54.5818 12.2592 55.9004 15.3531 57.1601 18.4704C57.737 19.9001 58.2196 21.3768 58.8201 22.8065C59.1262 23.5214 59.5735 24.1894 60.0091 24.8456C60.3152 25.3027 60.174 25.5254 59.7266 25.666C58.2667 26.1113 56.9953 25.5839 55.8297 24.8222C53.2985 23.1581 51.4031 20.8963 49.8373 18.3298C48.9072 16.7945 48.1067 15.189 47.8124 13.4194C47.5298 11.6381 47.5651 9.84505 48.7895 8.345C49.0485 8.02858 49.5548 7.9231 49.955 7.71216" fill="#86B340"></path><path d="M116.293 53.9669H114.198V55.3029H116.105V57.0842H114.198V60.2484H112.467V52.1855H116.293V53.9669Z" fill="#455560"></path><path d="M122.91 59.2757C122.227 60.0609 121.261 60.471 120.273 60.471C119.284 60.471 118.318 60.0609 117.635 59.2757C116.929 58.4553 116.588 57.3303 116.588 56.2638C116.588 55.1974 116.929 54.0489 117.635 53.2403C118.318 52.4551 119.284 52.0449 120.273 52.0449C121.261 52.0449 122.227 52.4551 122.91 53.2403C123.616 54.0489 123.957 55.1857 123.957 56.2638C123.957 57.342 123.616 58.4553 122.91 59.2757ZM118.919 54.7169C118.554 55.1388 118.389 55.7365 118.389 56.299C118.389 57.0139 118.671 57.5061 118.919 57.7991C119.237 58.1741 119.684 58.4436 120.273 58.4436C120.861 58.4436 121.309 58.1858 121.615 57.8108C121.921 57.4358 122.156 56.8732 122.156 56.2638C122.156 55.6544 121.921 55.0802 121.615 54.7169C121.238 54.295 120.732 54.0723 120.273 54.0723C119.813 54.0723 119.284 54.2716 118.919 54.7169Z" fill="#455560"></path><path d="M130.821 59.2405C130.138 60.0257 129.173 60.4359 128.184 60.4359C127.195 60.4359 126.23 60.0257 125.547 59.2405C124.84 58.4202 124.499 57.2951 124.499 56.2287C124.499 55.1622 124.84 54.0138 125.547 53.2051C126.23 52.4199 127.195 52.0098 128.184 52.0098C129.173 52.0098 130.138 52.4199 130.821 53.2051C131.527 54.0138 131.869 55.1505 131.869 56.2287C131.869 57.3068 131.527 58.4202 130.821 59.2405ZM126.83 54.6817C126.465 55.1036 126.3 55.7013 126.3 56.2638C126.3 56.9787 126.583 57.4709 126.83 57.7639C127.148 58.1389 127.595 58.4085 128.184 58.4085C128.773 58.4085 129.22 58.1506 129.526 57.7756C129.832 57.4006 130.068 56.8381 130.068 56.2287C130.068 55.6193 129.832 55.045 129.526 54.6817C129.149 54.2599 128.643 54.0372 128.184 54.0372C127.725 54.0372 127.195 54.2481 126.83 54.6817Z" fill="#455560"></path><path d="M132.516 60.2484V52.1738H134.789C135.46 52.1738 136.578 52.2793 137.437 53.2872C138.215 54.1895 138.368 55.3497 138.368 56.2287C138.368 57.2951 138.144 58.2327 137.496 59.0296C136.967 59.6741 136.072 60.2484 134.93 60.2484H132.505H132.516ZM134.247 58.467H134.6C135.024 58.467 135.613 58.4202 136.06 57.8811C136.284 57.6233 136.566 57.1193 136.566 56.2287C136.566 55.4786 136.378 54.8341 136.048 54.4591C135.636 54.002 135.095 53.9551 134.671 53.9551H134.247V58.467Z" fill="#455560"></path><path d="M139.027 60.2484V52.1738H141.617C142.099 52.1738 142.665 52.2559 143.077 52.8067C143.312 53.1114 143.489 53.6036 143.489 54.3184C143.489 54.67 143.442 54.9747 143.3 55.3146C143.159 55.631 143.006 55.8068 142.759 55.9474C143.112 55.9943 143.465 56.1935 143.665 56.4279C143.936 56.7443 144.113 57.26 144.113 57.9045C144.113 58.6663 143.877 59.1819 143.618 59.4866C143.253 59.9319 142.629 60.2484 141.805 60.2484H139.015H139.027ZM140.757 55.3615H141.075C141.252 55.3615 141.558 55.338 141.735 55.1036C141.852 54.9747 141.899 54.7521 141.899 54.5763C141.899 54.3653 141.84 54.1661 141.735 54.0372C141.629 53.9083 141.417 53.7911 141.075 53.7911H140.757V55.3615ZM140.757 58.6194H141.146C141.629 58.6194 142.029 58.5608 142.217 58.2913C142.3 58.1858 142.358 57.9983 142.358 57.7756C142.358 57.5178 142.288 57.3186 142.194 57.2014C141.982 56.9435 141.558 56.9318 141.122 56.9318H140.757V58.6311V58.6194Z" fill="#455560"></path><path d="M148.822 58.9007H146.397L145.949 60.2484H144.113L146.679 52.1738H148.575L151.082 60.2484H149.234L148.822 58.9007ZM148.363 57.3068L147.609 54.6935L146.879 57.3068H148.363Z" fill="#455560"></path><path d="M151.388 60.2484V52.1855H153.119L156.321 57.1193V52.1855H158.052V60.2484H156.321L153.119 55.3146V60.2484H151.388Z" fill="#455560"></path><path d="M160.819 55.5138L162.938 52.1855H165.08L162.431 56.006L165.316 60.2484H163.079L160.819 56.756V60.2484H159.076V52.1855H160.819V55.5138Z" fill="#455560"></path><path d="M116.835 45.8338C116.187 45.1658 115.575 45.0955 115.234 45.0955C113.95 45.0955 113.091 46.1737 113.091 47.6503C113.091 49.1269 113.986 50.1582 115.245 50.1582C115.952 50.1582 116.493 49.748 116.835 49.3847V50.6035C116.246 51.002 115.622 51.1074 115.222 51.1074C114.151 51.1074 113.48 50.5566 113.138 50.1816C112.455 49.455 112.196 48.5995 112.196 47.6503C112.196 46.4198 112.644 45.5643 113.138 45.0252C113.75 44.3689 114.457 44.158 115.269 44.158C115.811 44.158 116.329 44.2634 116.835 44.6384V45.8455V45.8338Z" fill="#455560"></path><path d="M123.286 47.6151C123.286 49.584 121.991 51.084 120.225 51.084C118.459 51.084 117.164 49.5722 117.164 47.6151C117.164 45.658 118.459 44.1462 120.225 44.1462C121.991 44.1462 123.286 45.658 123.286 47.6151ZM122.392 47.6151C122.392 46.1268 121.497 45.0838 120.225 45.0838C118.954 45.0838 118.059 46.1268 118.059 47.6151C118.059 49.1035 118.954 50.1465 120.225 50.1465C121.497 50.1465 122.392 49.1035 122.392 47.6151Z" fill="#455560"></path><path d="M123.757 50.9668L124.993 43.7595L127.042 48.9628L129.102 43.7595L130.209 50.9668H129.302L128.702 46.9237L126.983 51.2715L125.288 46.912L124.676 50.9668H123.757Z" fill="#455560"></path><path d="M130.962 50.9668L132.198 43.7595L134.247 48.9628L136.307 43.7595L137.414 50.9668H136.507L135.907 46.9237L134.188 51.2715L132.493 46.912L131.881 50.9668H130.962Z" fill="#455560"></path><path d="M139.239 44.2634V48.2948C139.239 48.6581 139.239 49.1035 139.427 49.455C139.604 49.7949 140.004 50.1465 140.522 50.1465C141.04 50.1465 141.44 49.7949 141.617 49.455C141.793 49.1035 141.805 48.6581 141.805 48.2948V44.2634H142.7V48.5761C142.7 49.1035 142.606 49.748 142.158 50.3105C141.852 50.6973 141.322 51.0957 140.522 51.0957C139.721 51.0957 139.203 50.6973 138.885 50.3105C138.438 49.748 138.332 49.1035 138.332 48.5761V44.2634H139.227H139.239Z" fill="#455560"></path><path d="M143.807 50.9668V43.8181L148.068 48.9043V44.2634H148.975V51.377L144.701 46.2792V50.9668H143.807Z" fill="#455560"></path><path d="M150.965 44.2634H150.07V50.9551H150.965V44.2634Z" fill="#455560"></path><path d="M153.708 45.2244V50.9668H152.813V45.2244H151.459V44.2634H155.062V45.2244H153.708Z" fill="#455560"></path><path d="M156.957 48.0722L155.026 44.2634H156.05L157.404 46.9471L158.758 44.2634H159.782L157.852 48.0722V50.9668H156.957V48.0722Z" fill="#455560"></path><path d="M117.682 64.9127C117.682 66.8816 116.376 68.3816 114.598 68.3816C112.82 68.3816 111.513 66.8698 111.513 64.9127C111.513 62.9556 112.82 61.4438 114.598 61.4438C116.376 61.4438 117.682 62.9556 117.682 64.9127ZM116.776 64.9127C116.776 63.4244 115.869 62.3814 114.598 62.3814C113.326 62.3814 112.42 63.4244 112.42 64.9127C112.42 66.4011 113.326 67.4441 114.598 67.4441C115.869 67.4441 116.776 66.4011 116.776 64.9127Z" fill="#455560"></path><path d="M121.344 62.522H119.284V64.2213H121.273V65.1823H119.284V68.2527H118.377V61.561H121.344V62.522Z" fill="#455560"></path><path d="M123.816 68.2527V61.104L128.113 66.2019V61.5611H129.02V68.6629L124.723 63.5768V68.2527H123.816Z" fill="#455560"></path><path d="M133.399 62.522H131.033V64.2213H133.329V65.1823H131.033V67.2917H133.399V68.2527H130.126V61.561H133.399V62.522Z" fill="#455560"></path><path d="M134.565 61.561L136.119 66.0378L137.72 61.2329L139.262 66.0378L140.887 61.561H141.864L139.215 68.6863L137.673 63.94L136.107 68.6863L133.588 61.561H134.565Z" fill="#455560"></path><path d="M145.843 61.561V65.8971C145.843 66.4245 145.832 66.9636 145.62 67.4206C145.431 67.8425 145.031 68.3816 144.23 68.3816C143.701 68.3816 143.359 68.1707 143.183 68.0418L143.63 67.1745C143.748 67.28 143.936 67.4206 144.254 67.4206C144.407 67.4206 144.701 67.3855 144.843 66.9636C144.89 66.8112 144.937 66.5769 144.937 65.8854V61.5493H145.843V61.561Z" fill="#455560"></path><path d="M150.223 62.522H147.856V64.2213H150.152V65.1823H147.856V67.2917H150.223V68.2527H146.95V61.561H150.223V62.522Z" fill="#455560"></path><path d="M152.142 61.561C152.86 61.561 153.319 61.6548 153.708 61.9478C154.355 62.44 154.414 63.2369 154.414 63.5299C154.414 64.4908 153.896 65.194 153.095 65.3932L154.944 68.2527H153.849L152.154 65.5104H151.989V68.2527H151.082V61.561H152.142ZM151.989 64.6315H152.271C152.519 64.6315 153.531 64.5963 153.531 63.5416C153.531 62.5923 152.742 62.5103 152.295 62.5103H151.989V64.6432V64.6315Z" fill="#455560"></path><path d="M158.075 63.0494C158.028 62.897 157.946 62.7564 157.805 62.6275C157.616 62.4517 157.428 62.3814 157.169 62.3814C156.616 62.3814 156.333 62.7564 156.333 63.1783C156.333 63.3775 156.392 63.7291 156.969 63.9986L157.569 64.2682C158.664 64.7721 158.958 65.4753 158.958 66.237C158.958 67.5144 158.158 68.3816 157.051 68.3816C156.368 68.3816 155.956 68.0886 155.662 67.7136C155.344 67.3152 155.203 66.8698 155.168 66.4128L156.062 66.1901C156.062 66.5183 156.168 66.8347 156.31 67.0456C156.474 67.28 156.722 67.4441 157.087 67.4441C157.64 67.4441 158.064 66.987 158.064 66.319C158.064 65.651 157.605 65.3581 157.216 65.1706L156.651 64.901C156.168 64.6666 155.45 64.2096 155.45 63.2017C155.45 62.2994 156.074 61.4321 157.181 61.4321C157.816 61.4321 158.181 61.7017 158.37 61.8892C158.535 62.0533 158.699 62.2759 158.829 62.5572L158.099 63.0377L158.075 63.0494Z" fill="#455560"></path><path d="M163.055 62.522H160.689V64.2213H162.985V65.1823H160.689V67.2917H163.055V68.2527H159.782V61.561H163.055V62.522Z" fill="#455560"></path><path d="M165.151 65.3581L163.197 61.561H164.233L165.598 64.2447L166.964 61.561H168L166.046 65.3581V68.2527H165.151V65.3581Z" fill="#455560"></path></g><defs><clipPath id="clip0_3273_170"><rect width="168" height="100" fill="white"></rect></clipPath></defs></svg> 