<?xml version="1.0" encoding="UTF-8"?> <svg xmlns="http://www.w3.org/2000/svg" width="170" height="102" viewBox="0 0 170 102" fill="none"><g clip-path="url(#clip0_3317_4)"><path d="M75.5659 40.9802C76.2259 39.9282 76.8063 38.8903 77.4897 37.9229C80.4292 33.7619 84.3423 31.0615 89.3695 30.0659C93.4885 29.2487 97.4625 29.7466 101.17 31.6674C106.847 34.6026 110.292 39.3224 111.692 45.5686C112.127 47.5035 112.329 49.4571 112.226 51.4249C112.151 52.8761 111.846 54.3179 111.748 55.769C111.598 57.9059 110.868 59.9065 110.016 61.7804C108.846 64.3493 107.372 66.7914 105.612 69.0456C103.14 72.2062 100.365 75.0663 97.5093 77.8606C93.6477 81.6365 89.6784 85.3044 85.8963 89.1554C82.2875 92.8279 79.0999 96.8715 76.2915 101.201C75.5893 102.286 75.6362 102.253 74.8311 101.187C72.8792 98.595 70.9788 95.951 68.8678 93.4901C66.6304 90.8789 64.2245 88.3993 61.7952 85.9665C59.3846 83.5526 56.8383 81.2749 54.3715 78.9173C52.6303 77.2501 50.8282 75.6299 49.2274 73.8312C47.6968 72.117 46.3815 70.2056 44.9913 68.3693C44.2237 67.3549 43.3905 66.364 42.782 65.2556C42.0097 63.8561 41.3591 62.3721 40.7833 60.8787C39.8846 58.5305 39.3931 56.0837 39.1591 53.5711C38.7051 48.7809 39.2153 44.1784 41.6024 39.9235C44.5326 34.7106 48.8155 31.2776 54.746 30.0753C58.8884 29.2347 62.8577 29.817 66.6164 31.6955C70.0848 33.4332 72.7294 36.0913 74.7094 39.421C74.8685 39.6887 75.0277 39.9517 75.1774 40.2241C75.3132 40.4683 75.4302 40.7172 75.5706 40.9849L75.5659 40.9802Z" fill="#F58438"></path><path d="M18.3111 69.5293C15.8303 70.4639 14.4588 70.7598 12.9142 70.7598C8.73895 70.7598 5.61221 69.0456 3.63226 67.0309C1.29189 64.6076 0 61.2121 0 57.9669C0 54.4259 1.47443 51.068 3.63226 48.795C5.75732 46.5595 8.95895 44.9158 12.6989 44.9158C13.8503 44.9158 15.7226 45.1036 18.3111 46.1838V53.9046C16.2984 51.331 13.9205 51.1807 12.8767 51.1807C11.0793 51.1807 9.71255 51.7396 8.56108 52.8197C7.08665 54.238 6.47347 56.1776 6.47347 57.9294C6.47347 59.6811 7.15686 61.5455 8.41598 62.776C9.45979 63.781 11.1168 64.4902 12.8767 64.4902C13.8129 64.4902 16.1158 64.3774 18.3111 61.879V69.5246V69.5293Z" fill="white"></path><path d="M36.0417 50.8098H28.5198V54.9473H35.3537V60.4279H28.5198V70.1963H22.2944V45.3245H36.037V50.8051L36.0417 50.8098Z" fill="white"></path><path d="M38.7145 70.201V45.3291H47.9964C49.7236 45.3291 51.7738 45.5921 53.2482 47.2687C54.0767 48.2033 54.7226 49.7296 54.7226 51.9322C54.7226 53.0123 54.5448 53.9469 54.0392 54.9895C53.5337 55.9569 52.9954 56.5158 52.0967 56.9291C53.3559 57.0794 54.615 57.6758 55.3733 58.4225C56.3468 59.39 56.9928 60.9961 56.9928 62.9733C56.9928 65.3215 56.1269 66.9276 55.2281 67.8575C53.9316 69.2382 51.6661 70.2057 48.7172 70.2057H38.7145V70.201ZM44.9399 55.1351H46.0913C46.7373 55.1351 47.8185 55.0599 48.4645 54.3508C48.8623 53.9422 49.0402 53.2706 49.0402 52.7118C49.0402 52.0778 48.8249 51.4437 48.4645 51.0352C48.0666 50.6266 47.313 50.2884 46.0913 50.2884H44.9399V55.1351ZM44.9399 65.1665H46.3441C48.0713 65.1665 49.513 64.9786 50.1963 64.1615C50.4866 63.828 50.7019 63.2645 50.7019 62.56C50.7019 61.7757 50.4491 61.1417 50.0887 60.7707C49.3351 59.9864 47.7858 59.9488 46.2364 59.9488H44.9399V65.1712V65.1665Z" fill="white"></path><path d="M59.1506 70.2012V45.3293H65.376L76.8532 60.5455V45.3293H83.0785V70.2012H76.8532L65.376 54.985V70.2012H59.1506Z" fill="white"></path><path d="M98.7403 45.3245V62.4427C98.7403 64.7533 98.5625 66.4721 96.6902 68.407C95.1081 70.046 93.2358 70.7552 90.8252 70.7552C89.4959 70.7552 88.3772 70.5298 87.0478 69.6375C86.1819 69.041 85.3581 68.1816 84.6747 67.1014L88.7423 62.7761C88.8125 63.4477 89.1729 64.3776 89.6082 64.7533C89.9312 65.0163 90.4367 65.1994 90.7971 65.1994C91.195 65.1994 91.6256 65.0116 91.8783 64.7908C92.4166 64.2695 92.5243 63.0391 92.5243 62.2924V45.3245H98.7497H98.7403Z" fill="white"></path><path d="M80.7382 12.1917C80.6727 15.5168 80.2514 18.7572 79.1234 21.8756C78.674 23.1108 78.1732 24.3647 76.9562 25.102C76.7409 25.2335 76.5068 25.3697 76.2681 25.4308C75.4583 25.6374 75.1962 25.4401 75.2383 24.5948C75.346 22.4298 74.8826 20.3352 74.5362 18.2219C74.3209 16.9116 74.2133 15.5778 74.0775 14.2581C73.8762 12.342 73.6094 10.4259 73.5252 8.50511C73.4503 6.82852 73.572 5.13783 73.6469 3.45654C73.675 2.84601 73.8201 2.24488 73.923 1.63905C74.2835 -0.432038 75.8422 -0.295844 77.0311 0.72796C78.8706 2.31533 79.7365 4.41929 80.1344 6.7205C80.4433 8.5239 80.551 10.3649 80.7476 12.1917H80.7382Z" fill="#93B14B"></path><path d="M105.953 11.5952C105.864 14.2346 105.125 16.1883 104.1 18.048C102.841 20.3257 101.207 22.3123 99.2786 24.0406C97.9119 25.2663 96.4608 26.3699 94.4762 26.323C93.2686 26.2948 93.0111 25.9332 93.6711 24.9282C94.9583 22.9651 95.4451 20.678 96.3579 18.5693C97.7434 15.3617 99.0586 12.1118 101.235 9.33629C101.802 8.61305 102.462 7.95086 103.552 7.99313C104.273 8.02131 104.736 8.33127 105.055 8.89953C105.602 9.88106 105.996 10.919 105.953 11.5952Z" fill="#93B14B"></path><path d="M50.5427 7.86157C51.9001 7.94141 52.5695 8.89947 53.1827 9.73072C55.2328 12.5016 56.5668 15.6622 57.84 18.8416C58.4251 20.3022 58.9119 21.805 59.5251 23.2562C59.834 23.9888 60.2787 24.6698 60.7233 25.3367C61.0369 25.8063 60.8965 26.0224 60.4331 26.1679C58.9587 26.6235 57.6715 26.0834 56.4919 25.3038C53.9316 23.6037 52.0078 21.3025 50.4257 18.682C49.4802 17.1181 48.6657 15.4837 48.3755 13.6757C48.0853 11.8629 48.1181 10.0313 49.3632 8.50497C49.6253 8.18562 50.1402 8.07291 50.538 7.86157H50.5427Z" fill="#93B14B"></path><path d="M117.683 55.0364H115.563V56.4078H117.487V58.2205H115.563V61.4516H113.808V53.2236H117.679V55.0364H117.683Z" fill="white"></path><path d="M124.377 60.4561C123.689 61.2592 122.715 61.6771 121.709 61.6771C120.702 61.6771 119.734 61.2592 119.045 60.4561C118.325 59.6154 117.983 58.4695 117.983 57.3847C117.983 56.2998 118.329 55.1257 119.045 54.2992C119.734 53.4961 120.707 53.0781 121.709 53.0781C122.71 53.0781 123.684 53.4961 124.377 54.2992C125.098 55.1257 125.439 56.2857 125.439 57.3847C125.439 58.4836 125.093 59.6201 124.377 60.4561ZM120.342 55.8067C119.977 56.2388 119.804 56.8446 119.804 57.4222C119.804 58.1502 120.089 58.6574 120.342 58.9533C120.665 59.3337 121.124 59.6061 121.709 59.6061C122.294 59.6061 122.753 59.3478 123.066 58.9627C123.38 58.5822 123.614 58.014 123.614 57.3847C123.614 56.7554 123.38 56.173 123.066 55.8067C122.692 55.3746 122.172 55.1539 121.709 55.1539C121.245 55.1539 120.707 55.3652 120.342 55.8067Z" fill="white"></path><path d="M132.376 60.4185C131.688 61.2216 130.714 61.6395 129.708 61.6395C128.702 61.6395 127.733 61.2216 127.045 60.4185C126.324 59.5778 125.982 58.4319 125.982 57.3471C125.982 56.2622 126.329 55.0881 127.045 54.2616C127.733 53.4585 128.706 53.0405 129.708 53.0405C130.71 53.0405 131.683 53.4585 132.376 54.2616C133.097 55.0881 133.439 56.2481 133.439 57.3471C133.439 58.446 133.092 59.5825 132.376 60.4185ZM128.341 55.7691C127.976 56.2012 127.803 56.807 127.803 57.3846C127.803 58.1126 128.089 58.6198 128.341 58.9157C128.664 59.2961 129.123 59.5684 129.708 59.5684C130.293 59.5684 130.752 59.3102 131.066 58.9251C131.379 58.5446 131.613 57.9764 131.613 57.3471C131.613 56.7178 131.379 56.1354 131.066 55.7691C130.691 55.337 130.172 55.1163 129.708 55.1163C129.245 55.1163 128.706 55.3276 128.341 55.7691Z" fill="white"></path><path d="M134.099 61.4516V53.2236H136.402C137.08 53.2236 138.218 53.3363 139.088 54.3601C139.879 55.2853 140.029 56.4688 140.029 57.3564C140.029 58.4413 139.805 59.404 139.149 60.2071C138.611 60.8599 137.708 61.4516 136.556 61.4516H134.103H134.099ZM135.854 59.6388H136.21C136.636 59.6388 137.235 59.5872 137.689 59.0471C137.914 58.7888 138.204 58.2722 138.204 57.3564C138.204 56.5909 138.012 55.9381 137.675 55.5577C137.258 55.0881 136.711 55.0411 136.275 55.0411H135.849V59.6435L135.854 59.6388Z" fill="white"></path><path d="M140.689 61.4516V53.2236H143.306C143.793 53.2236 144.368 53.3082 144.785 53.867C145.019 54.177 145.201 54.6795 145.201 55.4074C145.201 55.7644 145.15 56.0743 145.009 56.4171C144.869 56.7365 144.715 56.9244 144.462 57.0605C144.818 57.1075 145.173 57.3095 145.384 57.5537C145.655 57.873 145.838 58.4037 145.838 59.0612C145.838 59.8361 145.595 60.3668 145.342 60.6767C144.977 61.1323 144.34 61.4516 143.507 61.4516H140.689ZM142.444 56.4688H142.767C142.95 56.4688 143.254 56.4453 143.437 56.2105C143.549 56.0743 143.601 55.8536 143.601 55.6657C143.601 55.4544 143.54 55.2478 143.437 55.1116C143.324 54.9754 143.114 54.8627 142.767 54.8627H142.444V56.4688ZM142.444 59.7891H142.838C143.324 59.7891 143.732 59.7281 143.924 59.4557C144.003 59.343 144.064 59.1598 144.064 58.925C144.064 58.6667 143.994 58.4554 143.891 58.3333C143.68 58.075 143.24 58.0609 142.805 58.0609H142.44V59.7891H142.444Z" fill="white"></path><path d="M150.603 60.0709H148.15L147.696 61.4516H145.843L148.436 53.2236H150.35L152.897 61.4516H151.02L150.603 60.0709ZM150.135 58.4413L149.377 55.7738L148.637 58.4413H150.135Z" fill="white"></path><path d="M153.196 61.4516V53.2236H154.951L158.186 58.2581V53.2236H159.941V61.4516H158.186L154.951 56.4171V61.4516H153.196Z" fill="white"></path><path d="M162.731 56.6191L164.879 53.2236H167.046L164.36 57.1216L167.29 61.4516H165.02L162.731 57.8871V61.4516H160.976V53.2236H162.731V56.6191Z" fill="white"></path><path d="M118.226 46.7475C117.566 46.0618 116.948 45.9914 116.611 45.9914C115.32 45.9914 114.444 47.0856 114.444 48.5932C114.444 50.1007 115.352 51.1527 116.621 51.1527C117.337 51.1527 117.889 50.7347 118.226 50.3637V51.6035C117.627 52.0121 117.005 52.1154 116.593 52.1154C115.511 52.1154 114.833 51.5518 114.486 51.1714C113.789 50.4247 113.531 49.5512 113.531 48.5885C113.531 47.3298 113.986 46.4563 114.486 45.9162C115.104 45.2493 115.816 45.0239 116.64 45.0239C117.182 45.0239 117.711 45.1366 118.226 45.517V46.7475Z" fill="white"></path><path d="M124.761 48.5696C124.761 50.575 123.45 52.1154 121.662 52.1154C119.874 52.1154 118.563 50.5796 118.563 48.5696C118.563 46.5596 119.874 45.0286 121.662 45.0286C123.45 45.0286 124.761 46.5643 124.761 48.5696ZM123.853 48.5696C123.853 47.0527 122.944 45.9866 121.667 45.9866C120.389 45.9866 119.481 47.0527 119.481 48.5696C119.481 50.0865 120.389 51.1526 121.667 51.1526C122.944 51.1526 123.853 50.0865 123.853 48.5696Z" fill="white"></path><path d="M125.233 51.9791L126.483 44.634L128.552 49.9409L130.64 44.634L131.763 51.9791H130.836L130.228 47.8604L128.496 52.2938L126.783 47.851L126.16 51.9791H125.233Z" fill="white"></path><path d="M132.526 51.9791L133.776 44.634L135.845 49.9409L137.932 44.634L139.056 51.9791H138.129L137.52 47.8604L135.788 52.2938L134.075 47.851L133.453 51.9791H132.526Z" fill="white"></path><path d="M140.904 45.1506V49.2693C140.904 49.6403 140.914 50.0865 141.092 50.4481C141.27 50.7956 141.672 51.1526 142.196 51.1526C142.721 51.1526 143.123 50.7956 143.301 50.4481C143.479 50.0912 143.488 49.6403 143.488 49.2693V45.1506H144.396V49.5417C144.396 50.0865 144.298 50.7393 143.844 51.3122C143.53 51.702 143.006 52.1106 142.192 52.1106C141.377 52.1106 140.853 51.702 140.539 51.3122C140.085 50.7393 139.987 50.0818 139.987 49.5417V45.1506H140.895H140.904Z" fill="white"></path><path d="M145.52 51.9792V44.6858L149.84 49.88V45.1507H150.753V52.4019L146.432 47.2077V51.9792H145.524H145.52Z" fill="white"></path><path d="M152.775 45.1506V51.9838H151.862V45.1506H152.775Z" fill="white"></path><path d="M155.541 46.1322V51.9791H154.628V46.1322H153.262V45.1506H156.903V46.1322H155.537H155.541Z" fill="white"></path><path d="M158.827 49.0298L156.871 45.1506H157.905L159.281 47.8839L160.657 45.1506H161.692L159.735 49.0298V51.9791H158.827V49.0298Z" fill="white"></path><path d="M119.088 66.209C119.088 68.2144 117.768 69.7548 115.97 69.7548C114.173 69.7548 112.853 68.2191 112.853 66.209C112.853 64.199 114.173 62.668 115.97 62.668C117.768 62.668 119.088 64.2037 119.088 66.209ZM118.17 66.209C118.17 64.6921 117.253 63.626 115.97 63.626C114.688 63.626 113.77 64.6921 113.77 66.209C113.77 67.7259 114.688 68.792 115.97 68.792C117.253 68.792 118.17 67.7259 118.17 66.209Z" fill="white"></path><path d="M122.79 63.7717H120.707V65.5H122.72V66.4815H120.707V69.614H119.79V62.7808H122.79V63.7623V63.7717Z" fill="white"></path><path d="M125.294 69.6186V62.3252L129.643 67.5194V62.7901H130.56V70.0413L126.212 64.8471V69.6186H125.294Z" fill="white"></path><path d="M134.988 63.7717H132.596V65.5H134.913V66.4815H132.596V68.6324H134.988V69.614H131.683V62.7808H134.988V63.7623V63.7717Z" fill="white"></path><path d="M136.168 62.7855L137.75 67.355L139.365 62.4614L140.928 67.355L142.561 62.7855H143.549L140.872 70.0554L139.308 65.2135L137.726 70.0554L135.175 62.7855H136.163H136.168Z" fill="white"></path><path d="M147.584 62.7854V67.2094C147.584 67.7541 147.565 68.2942 147.359 68.7639C147.172 69.1912 146.765 69.7454 145.95 69.7454C145.421 69.7454 145.07 69.5294 144.892 69.3979L145.342 68.5196C145.459 68.6324 145.646 68.7639 145.969 68.7639C146.124 68.7639 146.418 68.731 146.573 68.3036C146.624 68.1486 146.671 67.9044 146.671 67.2094V62.7854H147.589H147.584Z" fill="white"></path><path d="M152.017 63.7717H149.625V65.5H151.942V66.4815H149.625V68.6324H152.017V69.614H148.712V62.7808H152.017V63.7623V63.7717Z" fill="white"></path><path d="M153.954 62.7854C154.68 62.7854 155.148 62.8887 155.536 63.1846C156.192 63.6871 156.248 64.4949 156.248 64.7907C156.248 65.7723 155.719 66.4908 154.919 66.6975L156.786 69.6186H155.682L153.964 66.8243H153.8V69.6186H152.883V62.7854H153.95H153.954ZM153.8 65.9179H154.085C154.338 65.9179 155.363 65.8897 155.363 64.8001C155.363 63.8374 154.563 63.7435 154.114 63.7435H153.8V65.9132V65.9179Z" fill="white"></path><path d="M159.955 64.3024C159.899 64.1474 159.819 64.0065 159.684 63.8703C159.496 63.6965 159.295 63.6261 159.038 63.6261C158.481 63.6261 158.195 64.0065 158.195 64.4433C158.195 64.6499 158.256 65.0068 158.841 65.2745L159.445 65.5516C160.55 66.0635 160.854 66.782 160.854 67.5569C160.854 68.8578 160.044 69.7501 158.921 69.7501C158.228 69.7501 157.816 69.4543 157.512 69.0645C157.189 68.6559 157.044 68.205 157.006 67.7354L157.914 67.51C157.914 67.8481 158.022 68.1675 158.167 68.3788C158.336 68.623 158.588 68.7874 158.949 68.7874C159.506 68.7874 159.936 68.3271 159.936 67.6415C159.936 66.9558 159.468 66.6599 159.075 66.4721L158.499 66.195C158.003 65.9602 157.278 65.4905 157.278 64.4667C157.278 63.5462 157.905 62.6633 159.028 62.6633C159.674 62.6633 160.044 62.9404 160.231 63.1236C160.395 63.2879 160.564 63.5228 160.69 63.8092L159.955 64.3024Z" fill="white"></path><path d="M164.996 63.7717H162.604V65.5H164.921V66.4815H162.604V68.6324H164.996V69.614H161.692V62.7808H164.996V63.7623V63.7717Z" fill="white"></path><path d="M167.117 66.6695L165.151 62.7903H166.195L167.58 65.5236L168.966 62.7903H170.009L168.043 66.6695V69.6188H167.126V66.6695H167.117Z" fill="white"></path></g><defs><clipPath id="clip0_3317_4"><rect width="170" height="102" fill="white"></rect></clipPath></defs></svg> 