<?xml version="1.0" encoding="UTF-8"?> <svg xmlns="http://www.w3.org/2000/svg" width="63" height="40" viewBox="0 0 63 40" fill="none"><g clip-path="url(#clip0_3273_212)"><path d="M38.611 20.4449C40.1408 18.9152 40.0473 16.3741 38.3306 14.9718C36.8348 13.748 34.6081 14.0114 33.2483 15.3797L32.526 16.1021L31.8036 15.3797C30.4353 14.0114 28.2086 13.7565 26.7214 14.9718C25.0046 16.3741 24.9111 18.9152 26.4409 20.4449L31.4721 25.9096C32.0415 26.53 33.0104 26.53 33.5798 25.9096L38.611 20.4449Z" fill="#F58438"></path><path d="M45.8675 20.2763C45.8675 27.6532 39.8929 33.6277 32.5161 33.6277C25.1392 33.6277 19.1731 27.6532 19.1731 20.2763C19.1731 12.8994 25.1477 6.93335 32.5161 6.93335C39.8844 6.93335 45.8675 12.9079 45.8675 20.2763Z" stroke="#9B9B9B" stroke-width="1.69974" stroke-miterlimit="10" stroke-linecap="square"></path><path d="M32.5113 1.39941C22.0835 1.39941 13.6358 9.84711 13.6358 20.275C13.6358 30.7029 22.0835 39.1506 32.5113 39.1506C42.9392 39.1506 51.3869 30.7029 51.3869 20.275C51.3869 9.84711 42.9392 1.39941 32.5113 1.39941ZM32.5113 33.6264C25.143 33.6264 19.1684 27.6519 19.1684 20.275C19.1684 12.8981 25.143 6.93206 32.5113 6.93206C39.8797 6.93206 45.8628 12.9066 45.8628 20.275C45.8628 27.6434 39.8882 33.6264 32.5113 33.6264Z" fill="#C9C9C9" stroke="#9B9B9B" stroke-width="1.69974" stroke-miterlimit="10" stroke-linecap="square"></path><path d="M45.8675 20.2763C45.8675 27.6532 39.8929 33.6277 32.5161 33.6277C25.1392 33.6277 19.1731 27.6532 19.1731 20.2763C19.1731 12.8994 25.1477 6.93335 32.5161 6.93335C39.8844 6.93335 45.8675 12.9079 45.8675 20.2763Z" stroke="#9B9B9B" stroke-width="1.69974" stroke-miterlimit="10" stroke-linecap="square"></path><path d="M56.7234 20.1127C55.9245 17.7331 55.4995 13.3733 56.5109 9.55737C57.7772 4.76411 61.1512 4.30518 61.1512 4.30518V23.5122" stroke="#9B9B9B" stroke-width="1.69974" stroke-miterlimit="10" stroke-linecap="square"></path><path d="M61.1553 23.5139H57.5603V39.1515H61.1553V23.5139Z" stroke="#9B9B9B" stroke-width="1.69974" stroke-miterlimit="10" stroke-linecap="square"></path><path d="M4.0801 16.2417V39.1542H7.67505V16.2417" stroke="#9B9B9B" stroke-width="1.69974" stroke-miterlimit="10" stroke-linecap="square"></path><path d="M9.89355 6.37305V13.223C9.89355 14.8887 8.54226 16.24 6.87652 16.24H4.86233C3.19658 16.24 1.84529 14.8887 1.84529 13.223V6.37305" stroke="#9B9B9B" stroke-width="1.69974" stroke-miterlimit="10" stroke-linecap="square"></path><path d="M5.87505 12.5261V6.37305" stroke="#9B9B9B" stroke-width="1.69974" stroke-miterlimit="10" stroke-linecap="square"></path></g><defs><clipPath id="clip0_3273_212"><rect width="61.0036" height="39.4509" fill="white" transform="translate(0.998207 0.549072)"></rect></clipPath></defs></svg> 