<?xml version="1.0" encoding="UTF-8"?> <svg xmlns="http://www.w3.org/2000/svg" width="39" height="49" viewBox="0 0 39 49" fill="none"><g clip-path="url(#clip0_3273_228)"><path d="M19.495 49.0001C29.8393 49.0001 38.225 46.4526 38.225 43.3101C38.225 40.1676 29.8393 37.6201 19.495 37.6201C9.15071 37.6201 0.764999 40.1676 0.764999 43.3101C0.764999 46.4526 9.15071 49.0001 19.495 49.0001Z" fill="#F58438"></path><path d="M36.165 24.9701C36.165 30.9101 33.025 38.2401 28.425 41.6001C24.775 44.2601 22.715 41.7201 19.385 41.7201C16.055 41.7201 14.035 44.5301 10.005 41.3501C5.645 37.9101 2.605 30.7601 2.605 24.9701C2.605 17.6401 6.975 14.1801 10.105 12.6301C11.715 11.8401 13.545 11.5901 15.305 11.8901C16.735 12.1401 18.515 12.4101 19.385 12.4101C20.135 12.4101 21.745 12.1001 23.045 11.8201C24.745 11.4601 26.515 11.6101 28.115 12.2901C31.415 13.6801 36.165 17.0501 36.165 24.9601V24.9701Z" fill="#C9C9C9" stroke="#9B9B9B" stroke-width="2" stroke-linecap="round" stroke-linejoin="round"></path><path d="M19.385 12.2702C19.385 12.2702 19.875 7.63021 17.245 3.46021" stroke="#9B9B9B" stroke-width="2" stroke-linecap="round" stroke-linejoin="round"></path><path d="M19.135 7.4302C19.135 7.4302 21.455 0.0901974 29.375 2.2302C29.375 2.2302 25.785 12.9002 19.135 7.4202V7.4302Z" stroke="#9B9B9B" stroke-width="2" stroke-linecap="round" stroke-linejoin="round"></path><path d="M16.724 23.6945L12.5975 26.7509C12.132 27.0918 11.4733 26.9667 11.1689 26.4754L10.2168 24.9466L9.98527 24.5735L9.95119 24.5099L9.67675 24.0686L8.472 22.1214C7.97714 21.3923 7.91178 20.4958 8.22752 19.7348C8.42959 19.2079 8.82221 18.7487 9.38063 18.4461C9.38063 18.4461 9.3822 18.4431 9.38534 18.4373C10.561 17.8068 12.029 18.2847 12.7689 19.3828L12.9194 19.6105L13.1691 19.9707L13.7523 19.5792C13.8388 19.5234 13.9206 19.4764 14.0112 19.4341C14.1519 19.3618 14.2925 19.2895 14.4413 19.2443C14.5137 19.215 14.5902 19.1991 14.6667 19.1833C14.7837 19.1551 14.9008 19.127 15.0261 19.1259C15.2055 19.1083 15.3802 19.0996 15.5591 19.1044C16.1973 19.1618 16.8118 19.4334 17.2497 19.9507C17.2497 19.9507 17.2527 19.9523 17.2586 19.9554C17.6618 20.4315 17.8521 21.0093 17.8547 21.5775C17.8595 22.3963 17.4708 23.2091 16.7417 23.7039L16.724 23.6945Z" fill="white"></path></g><defs><clipPath id="clip0_3273_228"><rect width="37.47" height="48.16" fill="white" transform="translate(0.764999 0.840088)"></rect></clipPath></defs></svg> 