<?xml version="1.0" encoding="UTF-8"?> <svg xmlns="http://www.w3.org/2000/svg" width="42" height="42" viewBox="0 0 42 42" fill="none"><g clip-path="url(#clip0_3273_268)"><path d="M20.0265 5.81194V10.7543H19.0502C17.9899 8.17195 15.0443 4.39251 11.3161 4.39251C8.71567 4.39251 7.78993 6.10266 7.78993 7.5734C7.78993 9.04413 8.71567 10.7543 11.3161 10.7543H4.80233C4.31422 9.7624 4.0365 8.6679 4.0365 7.5734C4.0365 4.10178 6.53598 0.578857 11.3161 0.578857C15.4062 0.578857 18.2423 3.10989 20.0265 5.81194Z" fill="white"></path><path d="M37.9541 7.5734C37.9541 8.6679 37.6734 9.7624 37.1801 10.7543H30.5885C33.2251 10.7543 34.1607 9.04413 34.1607 7.5734C34.1607 6.10266 33.2251 4.39251 30.5885 4.39251C26.8036 4.39251 23.8438 8.17195 22.7721 10.7543H21.9641V5.52121C23.7757 2.93032 26.608 0.578857 30.5885 0.578857C35.428 0.578857 37.9541 4.10178 37.9541 7.5734Z" fill="white"></path><path d="M38.5942 10.4946H22.6724V23.3962H36.604C39.0666 23.3962 41.0568 21.3983 41.0568 18.9357V14.4828C41.0568 12.7327 40.0578 11.2226 38.5942 10.4946ZM0.934814 14.4828V18.9357C0.934814 21.3983 2.93278 23.3962 5.3954 23.3962H19.327V10.4946H3.40517C1.94154 11.2226 0.934814 12.7327 0.934814 14.4828ZM5.3954 26.7417V36.7702C5.3954 39.2329 7.39337 41.2231 9.85598 41.2231H19.327V26.7417H5.3954ZM22.6724 26.7417V41.2231H32.1434C34.606 41.2231 36.604 39.2329 36.604 36.7702V26.7417H22.6724Z" fill="white" stroke="white" stroke-width="1.8" stroke-miterlimit="10"></path><path fill-rule="evenodd" clip-rule="evenodd" d="M16.1539 9.78729H25.3602C25.3601 7.37889 23.4077 5.42651 20.9993 5.42651H20.5148C18.1064 5.42651 16.1539 7.37889 16.1539 9.78729Z" fill="white"></path></g><defs><clipPath id="clip0_3273_268"><rect width="41.6708" height="41.4385" fill="white" transform="translate(0.164612 0.561523)"></rect></clipPath></defs></svg> 