<?xml version="1.0" encoding="UTF-8"?> <svg xmlns="http://www.w3.org/2000/svg" width="31" height="52" viewBox="0 0 31 52" fill="none"><g clip-path="url(#clip0_3273_256)"><path d="M4.54949 15.0212H26.4428C28.1151 15.0212 29.4713 16.3775 29.4713 18.0498V43.5427C29.4713 45.215 28.1151 46.5712 26.4428 46.5712H1.52094V18.0498C1.52094 16.3775 2.87716 15.0212 4.54949 15.0212Z" fill="#C9C9C9" stroke="#9B9B9B" stroke-width="1.8" stroke-miterlimit="10"></path><path d="M1.52094 43.543V47.8054C1.52094 49.6511 3.25445 51.15 5.39585 51.15H29.4815" stroke="#9B9B9B" stroke-width="1.8" stroke-miterlimit="10" stroke-linecap="round"></path><path d="M21.7102 31.7737L16.5709 37.3618C15.9998 37.994 15.0005 37.994 14.4193 37.3618L9.26971 31.7737C8.34177 30.8458 7.99507 29.5609 8.2398 28.3679C8.39276 27.5419 8.83123 26.7567 9.55523 26.1755L9.57562 26.1551C11.1052 24.9212 13.369 25.1966 14.7558 26.5834L15.49 27.3176L16.2242 26.5834C17.611 25.1966 19.8747 24.9212 21.4043 26.1551L21.4247 26.1755C22.1487 26.7567 22.5872 27.5419 22.7401 28.3679C22.9849 29.5609 22.6382 30.8458 21.7102 31.7737Z" fill="white" stroke="#9B9B9B" stroke-width="1.8" stroke-miterlimit="10"></path><path d="M16.233 6.19977C16.2024 7.6174 16.0236 8.99934 15.5383 10.3303C15.3441 10.8555 15.1296 11.391 14.6085 11.7071C14.5165 11.7632 14.4144 11.8193 14.3122 11.8448C13.9648 11.9315 13.8524 11.8448 13.8678 11.4879C13.9137 10.5649 13.7145 9.67246 13.5664 8.76987C13.4744 8.20893 13.4284 7.6429 13.3671 7.07687C13.2803 6.26096 13.1679 5.43996 13.1321 4.62406C13.1015 3.91014 13.1526 3.18602 13.1832 2.47211C13.1934 2.21204 13.2547 1.95707 13.3007 1.697C13.454 0.814802 14.1232 0.870895 14.634 1.30944C15.4208 1.98766 15.7937 2.88516 15.9623 3.86934C16.0951 4.63935 16.1411 5.42466 16.2228 6.20487" fill="#F58438"></path><path d="M27.0507 5.94584C27.015 7.0728 26.6931 7.90401 26.2538 8.69951C25.7123 9.6684 25.0124 10.52 24.1848 11.2543C23.5974 11.7796 22.9792 12.2487 22.1261 12.2283C21.6101 12.2181 21.4977 12.06 21.7787 11.6317C22.3304 10.7954 22.5399 9.82138 22.9332 8.91879C23.5258 7.55215 24.0929 6.16511 25.0226 4.97695C25.2627 4.67098 25.5488 4.38542 26.0188 4.40582C26.3253 4.41601 26.5245 4.5486 26.6625 4.79337C26.8975 5.21152 27.066 5.65517 27.0507 5.94584Z" fill="#F58438"></path><path d="M3.28543 4.35498C3.8678 4.39068 4.15388 4.79863 4.41952 5.15049C5.29819 6.33355 5.87035 7.67979 6.41696 9.03623C6.66728 9.65836 6.87673 10.3009 7.13726 10.923C7.27008 11.2341 7.46421 11.5247 7.65323 11.8103C7.78605 12.0092 7.72474 12.1061 7.53062 12.1673C6.89716 12.361 6.34544 12.1316 5.8397 11.8001C4.74136 11.076 3.91889 10.0918 3.23946 8.97504C2.83588 8.30702 2.4885 7.6084 2.36079 6.83839C2.23818 6.06328 2.25351 5.28307 2.78479 4.63035C2.89718 4.49266 3.11685 4.44677 3.29054 4.35498" fill="#F58438"></path></g><defs><clipPath id="clip0_3273_256"><rect width="30" height="52" fill="white" transform="translate(0.5)"></rect></clipPath></defs></svg> 