<?xml version="1.0" encoding="UTF-8"?> <svg xmlns="http://www.w3.org/2000/svg" width="28" height="48" viewBox="0 0 28 48" fill="none"><g clip-path="url(#clip0_3273_238)"><path d="M4.67348 12.6944C6.28206 12.6944 7.59902 14.0114 7.59902 15.62V5.66748C7.59902 4.38815 8.65259 3.33458 9.93193 3.33458C11.2113 3.33458 12.2648 4.38815 12.2648 5.66748V3.69204C12.2648 2.4127 13.3184 1.35913 14.5977 1.35913C15.8771 1.35913 16.9306 2.40329 16.9306 3.69204V6.49529C16.9306 5.21595 17.9842 4.16238 19.2636 4.16238C20.5429 4.16238 21.5965 5.21595 21.5965 6.49529V10.7002C21.5965 9.42083 22.65 8.36726 23.9294 8.36726C25.2087 8.36726 26.2623 9.42083 26.2623 10.7002V26.0804C26.2623 29.9466 24.4467 33.4178 21.6247 35.666V38.949H7.58961V36.5126C4.09025 34.3491 1.74794 30.4734 1.74794 26.0804V15.62C1.74794 14.0114 3.0649 12.6944 4.67348 12.6944Z" fill="#C9C9C9" stroke="#9B9B9B" stroke-width="1.88138" stroke-linecap="round" stroke-linejoin="round"></path><path d="M7.5905 18.3763V15.6201" stroke="#9B9B9B" stroke-width="1.88138" stroke-linecap="round" stroke-linejoin="round"></path><path d="M12.2572 16.1467V5.66748" stroke="#9B9B9B" stroke-width="1.88138" stroke-linecap="round" stroke-linejoin="round"></path><path d="M16.9202 17.0694V6.49609" stroke="#9B9B9B" stroke-width="1.88138" stroke-linecap="round" stroke-linejoin="round"></path><path d="M21.5759 18.0374V10.6907" stroke="#9B9B9B" stroke-width="1.88138" stroke-linecap="round" stroke-linejoin="round"></path><path d="M6.67699 38.95H22.4429C23.045 38.95 23.5341 39.4391 23.5341 40.0411V45.9769C23.5341 46.5789 23.045 47.0681 22.4429 47.0681H6.67699C6.07495 47.0681 5.5952 46.5789 5.5952 45.9769V40.0411C5.5952 39.4391 6.08436 38.95 6.67699 38.95Z" fill="#F58438" stroke="#F58438" stroke-width="1.88138" stroke-linecap="round" stroke-linejoin="round"></path><path d="M13.8599 22.7775C9.50325 18.1957 4.76897 24.6581 9.7356 29.4868L13.8599 33.5022L17.9843 29.4868C22.9509 24.6581 18.2166 18.1884 13.8599 22.7775Z" fill="white"></path></g><defs><clipPath id="clip0_3273_238"><rect width="26.3769" height="47.58" fill="white" transform="translate(0.811554 0.419922)"></rect></clipPath></defs></svg> 