<?xml version="1.0" encoding="UTF-8"?> <svg xmlns="http://www.w3.org/2000/svg" width="48" height="43" viewBox="0 0 48 43" fill="none"><path d="M32.8194 9.52004C35.039 7.30043 34.8953 3.62769 32.4122 1.59171C30.2485 -0.180783 27.0228 0.20246 25.0507 2.17456L24.0048 3.22049L22.9589 2.17456C20.9788 0.194476 17.7612 -0.180783 15.5974 1.59171C13.1064 3.62769 12.9706 7.30841 15.1902 9.52004L22.4798 17.4324C23.3022 18.3266 24.7074 18.3266 25.5378 17.4324L32.8274 9.52004H32.8194Z" fill="#F58438"></path><path d="M41.9482 10.9016C39.9043 11.2369 38.4911 13.1531 38.4911 15.221V20.4427C38.5949 20.5305 38.7067 20.6024 38.8025 20.6982C41.1259 23.0456 41.1578 26.894 38.8743 29.2812L35.9521 32.922C35.5449 33.433 34.9381 33.6965 34.3313 33.6965C33.8762 33.6965 33.4211 33.5448 33.0379 33.2414L34.3313 31.6206L37.3733 27.8521C38.8743 26.2792 38.8584 23.7162 37.3254 22.1673C35.7285 20.5545 33.0538 20.8818 31.6247 22.6464L27.888 27.2533C26.6904 28.7303 26.0357 30.5827 26.0357 32.4829V39.9242C26.0357 41.0739 26.9619 42.0001 28.1116 42.0001H38.2196C39.6807 42.0001 41.0301 41.2336 41.7806 39.9801L45.621 33.5847C46.3955 32.2913 46.8026 30.8142 46.8026 29.3132V14.9975C46.8026 12.4745 44.5511 10.4784 41.9482 10.9016Z" fill="#C9C9C9" stroke="#9B9B9B" stroke-width="1.59684" stroke-miterlimit="10"></path><path d="M6.21943 39.9801C6.96994 41.2336 8.31928 42.0001 9.78039 42.0001H19.8884C21.0381 42.0001 21.9643 41.0739 21.9643 39.9242V32.4829C21.9643 30.5747 21.3096 28.7303 20.112 27.2533L16.3753 22.6464C14.9462 20.8818 12.2715 20.5545 10.6746 22.1673C9.14165 23.7162 9.12568 26.2792 10.6267 27.8521L13.6687 31.6206L14.9621 33.2414C14.5789 33.5448 14.1238 33.6965 13.6687 33.6965C13.0619 33.6965 12.4631 33.433 12.0479 32.922L9.12568 29.2812C6.8422 26.894 6.88212 23.0456 9.19754 20.6982C9.29335 20.6024 9.40513 20.5305 9.50892 20.4427V15.221C9.50892 13.1531 8.09572 11.2369 6.05176 10.9016C3.44891 10.4784 1.19736 12.4745 1.19736 14.9975V29.3132C1.19736 30.8222 1.60455 32.2993 2.37902 33.5847L6.21943 39.9801Z" fill="#C9C9C9" stroke="#9B9B9B" stroke-width="1.59684" stroke-miterlimit="10"></path></svg> 