<?xml version="1.0" encoding="UTF-8"?> <svg xmlns="http://www.w3.org/2000/svg" xmlns:xlink="http://www.w3.org/1999/xlink" version="1.1" id="Layer_1" x="0px" y="0px" viewBox="0 0 135 86" style="enable-background:new 0 0 135 86;" xml:space="preserve"> <style type="text/css"> .st0{clip-path:url(#SVGID_00000136393329518562908440000012324720050121677238_);} .st1{fill:#F58438;} .st2{fill:none;stroke:#9B9B9B;stroke-width:4.1625;stroke-linecap:square;stroke-miterlimit:10;} .st3{fill:#C9C9C9;stroke:#9B9B9B;stroke-width:4.1625;stroke-linecap:square;stroke-miterlimit:10;} </style> <g> <defs> <rect id="SVGID_1_" x="0.4" width="134.2" height="85.4"></rect> </defs> <clipPath id="SVGID_00000132800002389492200150000002333282880947387559_"> <use xlink:href="#SVGID_1_" style="overflow:visible;"></use> </clipPath> <g style="clip-path:url(#SVGID_00000132800002389492200150000002333282880947387559_);"> <path class="st1" d="M83.1,43.1c3.4-3.3,3.2-8.8-0.6-11.8c-3.3-2.6-8.2-2.1-11.2,0.9l-1.6,1.6l-1.6-1.6c-3-3-7.9-3.5-11.2-0.9 c-3.8,3-4,8.5-0.6,11.8l11.1,11.8c1.3,1.3,3.4,1.3,4.6,0L83.1,43.1z"></path> <path class="st2" d="M99.1,42.7c0,16-13.1,28.9-29.4,28.9S40.4,58.7,40.4,42.7c0-16,13.1-28.9,29.4-28.9S99.1,26.8,99.1,42.7z"></path> <path class="st3" d="M69.7,1.8c-22.9,0-41.5,18.3-41.5,40.9s18.6,40.9,41.5,40.9c22.9,0,41.5-18.3,41.5-40.9S92.7,1.8,69.7,1.8z M69.7,71.6c-16.2,0-29.4-12.9-29.4-28.9s13.1-28.9,29.4-28.9c16.2,0,29.4,12.9,29.4,28.9C99.1,58.7,86,71.6,69.7,71.6z"></path> <path class="st2" d="M99.1,42.7c0,16-13.1,28.9-29.4,28.9S40.4,58.7,40.4,42.7c0-16,13.1-28.9,29.4-28.9S99.1,26.8,99.1,42.7z"></path> <path class="st2" d="M123,42.4c-1.8-5.2-2.7-14.6-0.5-22.9c2.8-10.4,10.2-11.4,10.2-11.4v41.6"></path> <path class="st2" d="M132.8,49.7h-7.9v33.9h7.9V49.7z"></path> <path class="st2" d="M7.2,34v49.6h7.9V34"></path> <path class="st2" d="M20,12.6v14.8c0,3.6-3,6.5-6.6,6.5H8.9c-3.7,0-6.6-2.9-6.6-6.5V12.6"></path> <path class="st2" d="M11.1,25.9V12.6"></path> </g> </g> </svg> 