<?xml version="1.0" encoding="UTF-8"?> <svg xmlns="http://www.w3.org/2000/svg" width="1455" height="43" viewBox="0 0 1455 43" fill="none"><g opacity="0.12"><path d="M21.7161 1.33459H0.13354V42H8.05933V24.0755H20.8625V17.2471H8.05933V8.16297H21.7161V1.33459ZM52.6847 0.420075C39.8815 0.420075 30.9802 9.32135 30.9802 21.6978C30.9802 34.0742 39.8815 42.9145 52.6847 42.9145C65.4879 42.9145 74.3892 34.0742 74.3892 21.6978C74.3892 9.32135 65.4879 0.420075 52.6847 0.420075ZM52.6847 35.7203C44.7589 35.7203 39.1499 29.9284 39.1499 21.6978C39.1499 13.4671 44.7589 7.61426 52.6847 7.61426C60.6105 7.61426 66.2195 13.4671 66.2195 21.6978C66.2195 29.9284 60.6105 35.7203 52.6847 35.7203ZM105.845 0.420075C93.0414 0.420075 84.1402 9.32135 84.1402 21.6978C84.1402 34.0742 93.0414 42.9145 105.845 42.9145C118.648 42.9145 127.549 34.0742 127.549 21.6978C127.549 9.32135 118.648 0.420075 105.845 0.420075ZM105.845 35.7203C97.9188 35.7203 92.3098 29.9284 92.3098 21.6978C92.3098 13.4671 97.9188 7.61426 105.845 7.61426C113.77 7.61426 119.379 13.4671 119.379 21.6978C119.379 29.9284 113.77 35.7203 105.845 35.7203ZM139.251 1.33459V42H149.737C155.407 42 159.858 41.4513 164.614 38.0981C169.979 34.3181 172.783 28.4652 172.783 21.6978C172.783 14.9304 169.918 9.01651 164.979 5.29748C160.468 1.94427 155.529 1.33459 149.859 1.33459H139.251ZM147.177 8.16297H149.616C152.298 8.16297 156.322 8.40684 159.614 10.8455C162.845 13.2842 164.614 17.43 164.614 21.6978C164.614 26.0265 162.785 30.1723 159.553 32.489C156.017 35.0497 151.627 35.1716 149.616 35.1716H147.177V8.16297ZM220.435 21.271C220.435 25.9655 224.276 29.8065 228.97 29.8065C233.665 29.8065 237.505 25.9655 237.505 21.271C237.505 16.5765 233.665 12.7355 228.97 12.7355C224.276 12.7355 220.435 16.5765 220.435 21.271ZM276.411 1.33459H268.485V42H276.411V23.8926H293.604V42H301.53V1.33459H293.604V17.0642H276.411V1.33459ZM337.773 1.33459H315.215V42H337.773V35.1716H323.141V24.0755H337.163V17.2471H323.141V8.16297H337.773V1.33459ZM349.858 1.33459V42H370.343V35.1716H357.784V1.33459H349.858ZM380.215 1.33459V42H388.141V26.941H393.262C397.956 26.941 401.31 25.5997 403.565 23.3439C406.675 20.2346 406.919 15.8449 406.919 14.2597C406.919 11.3333 406.065 7.37039 402.773 4.44394C399.785 1.82233 396.615 1.33459 392.042 1.33459H380.215ZM388.141 8.16297H390.884C392.774 8.16297 394.847 8.2849 396.493 9.44328C397.652 10.2968 398.749 11.821 398.749 14.0768C398.749 15.8449 398.017 17.6739 396.554 18.8323C394.847 20.1126 392.896 20.1126 391.372 20.1126H388.141V8.16297ZM453.122 21.271C453.122 25.9655 456.963 29.8065 461.658 29.8065C466.352 29.8065 470.193 25.9655 470.193 21.271C470.193 16.5765 466.352 12.7355 461.658 12.7355C456.963 12.7355 453.122 16.5765 453.122 21.271ZM527.726 1.33459H519.8V42H527.726V23.8926H544.919V42H552.845V1.33459H544.919V17.0642H527.726V1.33459ZM586.284 0.420075C573.48 0.420075 564.579 9.32135 564.579 21.6978C564.579 34.0742 573.48 42.9145 586.284 42.9145C599.087 42.9145 607.988 34.0742 607.988 21.6978C607.988 9.32135 599.087 0.420075 586.284 0.420075ZM586.284 35.7203C578.358 35.7203 572.749 29.9284 572.749 21.6978C572.749 13.4671 578.358 7.61426 586.284 7.61426C594.209 7.61426 599.818 13.4671 599.818 21.6978C599.818 29.9284 594.209 35.7203 586.284 35.7203ZM619.69 1.33459V42H627.616V26.941H632.737C637.432 26.941 640.785 25.5997 643.041 23.3439C646.15 20.2346 646.394 15.8449 646.394 14.2597C646.394 11.3333 645.54 7.37039 642.248 4.44394C639.261 1.82233 636.09 1.33459 631.518 1.33459H619.69ZM627.616 8.16297H630.359C632.249 8.16297 634.322 8.2849 635.968 9.44328C637.127 10.2968 638.224 11.821 638.224 14.0768C638.224 15.8449 637.493 17.6739 636.029 18.8323C634.322 20.1126 632.371 20.1126 630.847 20.1126H627.616V8.16297ZM679.213 1.33459H656.655V42H679.213V35.1716H664.581V24.0755H678.604V17.2471H664.581V8.16297H679.213V1.33459ZM727.241 21.271C727.241 25.9655 731.082 29.8065 735.777 29.8065C740.471 29.8065 744.312 25.9655 744.312 21.271C744.312 16.5765 740.471 12.7355 735.777 12.7355C731.082 12.7355 727.241 16.5765 727.241 21.271ZM796.874 1.33459H775.292V42H783.217V24.0755H796.021V17.2471H783.217V8.16297H796.874V1.33459ZM827.843 0.420075C815.04 0.420075 806.138 9.32135 806.138 21.6978C806.138 34.0742 815.04 42.9145 827.843 42.9145C840.646 42.9145 849.547 34.0742 849.547 21.6978C849.547 9.32135 840.646 0.420075 827.843 0.420075ZM827.843 35.7203C819.917 35.7203 814.308 29.9284 814.308 21.6978C814.308 13.4671 819.917 7.61426 827.843 7.61426C835.769 7.61426 841.378 13.4671 841.378 21.6978C841.378 29.9284 835.769 35.7203 827.843 35.7203ZM881.003 0.420075C868.199 0.420075 859.298 9.32135 859.298 21.6978C859.298 34.0742 868.199 42.9145 881.003 42.9145C893.806 42.9145 902.707 34.0742 902.707 21.6978C902.707 9.32135 893.806 0.420075 881.003 0.420075ZM881.003 35.7203C873.077 35.7203 867.468 29.9284 867.468 21.6978C867.468 13.4671 873.077 7.61426 881.003 7.61426C888.928 7.61426 894.537 13.4671 894.537 21.6978C894.537 29.9284 888.928 35.7203 881.003 35.7203ZM914.409 1.33459V42H924.895C930.565 42 935.016 41.4513 939.772 38.0981C945.137 34.3181 947.941 28.4652 947.941 21.6978C947.941 14.9304 945.076 9.01651 940.137 5.29748C935.626 1.94427 930.687 1.33459 925.017 1.33459H914.409ZM922.335 8.16297H924.774C927.456 8.16297 931.48 8.40684 934.772 10.8455C938.004 13.2842 939.772 17.43 939.772 21.6978C939.772 26.0265 937.943 30.1723 934.711 32.489C931.175 35.0497 926.785 35.1716 924.774 35.1716H922.335V8.16297ZM995.593 21.271C995.593 25.9655 999.434 29.8065 1004.13 29.8065C1008.82 29.8065 1012.66 25.9655 1012.66 21.271C1012.66 16.5765 1008.82 12.7355 1004.13 12.7355C999.434 12.7355 995.593 16.5765 995.593 21.271ZM1051.57 1.33459H1043.64V42H1051.57V23.8926H1068.76V42H1076.69V1.33459H1068.76V17.0642H1051.57V1.33459ZM1112.93 1.33459H1090.37V42H1112.93V35.1716H1098.3V24.0755H1112.32V17.2471H1098.3V8.16297H1112.93V1.33459ZM1125.02 1.33459V42H1145.5V35.1716H1132.94V1.33459H1125.02ZM1155.37 1.33459V42H1163.3V26.941H1168.42C1173.11 26.941 1176.47 25.5997 1178.72 23.3439C1181.83 20.2346 1182.08 15.8449 1182.08 14.2597C1182.08 11.3333 1181.22 7.37039 1177.93 4.44394C1174.94 1.82233 1171.77 1.33459 1167.2 1.33459H1155.37ZM1163.3 8.16297H1166.04C1167.93 8.16297 1170.01 8.2849 1171.65 9.44328C1172.81 10.2968 1173.91 11.821 1173.91 14.0768C1173.91 15.8449 1173.18 17.6739 1171.71 18.8323C1170.01 20.1126 1168.05 20.1126 1166.53 20.1126H1163.3V8.16297ZM1228.28 21.271C1228.28 25.9655 1232.12 29.8065 1236.82 29.8065C1241.51 29.8065 1245.35 25.9655 1245.35 21.271C1245.35 16.5765 1241.51 12.7355 1236.82 12.7355C1232.12 12.7355 1228.28 16.5765 1228.28 21.271ZM1302.88 1.33459H1294.96V42H1302.88V23.8926H1320.08V42H1328V1.33459H1320.08V17.0642H1302.88V1.33459ZM1361.44 0.420075C1348.64 0.420075 1339.74 9.32135 1339.74 21.6978C1339.74 34.0742 1348.64 42.9145 1361.44 42.9145C1374.24 42.9145 1383.15 34.0742 1383.15 21.6978C1383.15 9.32135 1374.24 0.420075 1361.44 0.420075ZM1361.44 35.7203C1353.52 35.7203 1347.91 29.9284 1347.91 21.6978C1347.91 13.4671 1353.52 7.61426 1361.44 7.61426C1369.37 7.61426 1374.98 13.4671 1374.98 21.6978C1374.98 29.9284 1369.37 35.7203 1361.44 35.7203ZM1394.85 1.33459V42H1402.77V26.941H1407.9C1412.59 26.941 1415.94 25.5997 1418.2 23.3439C1421.31 20.2346 1421.55 15.8449 1421.55 14.2597C1421.55 11.3333 1420.7 7.37039 1417.41 4.44394C1414.42 1.82233 1411.25 1.33459 1406.68 1.33459H1394.85ZM1402.77 8.16297H1405.52C1407.41 8.16297 1409.48 8.2849 1411.13 9.44328C1412.28 10.2968 1413.38 11.821 1413.38 14.0768C1413.38 15.8449 1412.65 17.6739 1411.19 18.8323C1409.48 20.1126 1407.53 20.1126 1406.01 20.1126H1402.77V8.16297ZM1454.37 1.33459H1431.81V42H1454.37V35.1716H1439.74V24.0755H1453.76V17.2471H1439.74V8.16297H1454.37V1.33459Z" fill="#455560"></path></g></svg> 