<?xml version="1.0" encoding="UTF-8"?> <svg xmlns="http://www.w3.org/2000/svg" width="266" height="183" viewBox="0 0 266 183" fill="none"><path d="M175.698 62.4127C175.445 61 175.04 59.6377 174.483 58.2754L140.588 80.5261C135.985 83.5029 130.015 83.5029 125.462 80.5261L91.567 58.2754C90.96 59.6377 90.5553 61 90.3023 62.4127C89.847 64.6832 89.7458 67.0041 89.9988 69.3251L119.897 88.952C123.843 91.5252 128.447 92.8371 133 92.8371C137.553 92.8371 142.157 91.5252 146.103 88.952L176.001 69.3251C176.254 67.0041 176.153 64.6832 175.698 62.4127ZM175.698 62.4127C175.445 61 175.04 59.6377 174.483 58.2754L140.588 80.5261C135.985 83.5029 130.015 83.5029 125.462 80.5261L91.567 58.2754C90.96 59.6377 90.5553 61 90.3023 62.4127C89.847 64.6832 89.7458 67.0041 89.9988 69.3251L119.897 88.952C123.843 91.5252 128.447 92.8371 133 92.8371C137.553 92.8371 142.157 91.5252 146.103 88.952L176.001 69.3251C176.254 67.0041 176.153 64.6832 175.698 62.4127ZM247.686 0H18.3133C8.24601 0 -9.15527e-05 8.1737 -9.15527e-05 18.2142V164.786C-9.15527e-05 174.826 8.24601 183 18.3133 183H247.686C257.804 183 266 174.826 266 164.786V18.2142C266 8.1737 257.804 0 247.686 0ZM255.882 164.786C255.882 169.276 252.189 172.909 247.686 172.909H18.3133C13.8109 172.909 10.1178 169.276 10.1178 164.786V18.2142C10.1178 17.8106 10.219 17.4069 10.2696 17.0033L82.3597 64.2796C82.3597 62.5641 82.5115 60.8486 82.8656 59.1332C83.2198 57.2663 83.7762 55.45 84.5857 53.684L18.1616 10.091H247.838L181.414 53.684C182.224 55.45 182.78 57.2663 183.134 59.1332C183.488 60.8486 183.64 62.5641 183.64 64.2796L255.73 17.0033C255.781 17.4069 255.882 17.8106 255.882 18.2142V164.786ZM174.483 58.2754L140.588 80.5261C135.985 83.5029 130.015 83.5029 125.462 80.5261L91.567 58.2754C90.96 59.6377 90.5553 61 90.3023 62.4127C89.847 64.6832 89.7458 67.0041 89.9988 69.3251L119.897 88.952C123.843 91.5252 128.447 92.8371 133 92.8371C137.553 92.8371 142.157 91.5252 146.103 88.952L176.001 69.3251C176.254 67.0041 176.153 64.6832 175.698 62.4127C175.445 61 175.04 59.6377 174.483 58.2754Z" fill="#9B9B9B"></path><path d="M255.73 17.0036L183.64 64.2799C183.64 62.5644 183.488 60.849 183.134 59.1335C182.78 57.2667 182.224 55.4503 181.414 53.6844L247.838 10.0913H18.1617L84.5858 53.6844C83.7764 55.4503 83.2199 57.2667 82.8658 59.1335C82.5116 60.849 82.3599 62.5644 82.3599 64.2799L10.2697 17.0036C10.2191 17.4073 10.118 17.8109 10.118 18.2146V164.786C10.118 169.277 13.811 172.909 18.3135 172.909H247.687C252.189 172.909 255.882 169.277 255.882 164.786V18.2146C255.882 17.8109 255.781 17.4073 255.73 17.0036ZM176.001 69.3254L146.103 88.9523C142.157 91.5256 137.553 92.8374 133 92.8374C128.447 92.8374 123.843 91.5256 119.897 88.9523L89.9989 69.3254C89.7459 67.0045 89.8471 64.6835 90.3024 62.4131C90.5554 61.0003 90.9601 59.638 91.5672 58.2758L125.462 80.5264C130.015 83.5032 135.985 83.5032 140.588 80.5264L174.483 58.2758C175.04 59.638 175.445 61.0003 175.698 62.4131C176.153 64.6835 176.254 67.0045 176.001 69.3254Z" fill="white"></path><path d="M176.001 69.3253C175.445 74.1185 173.32 78.7099 169.627 82.3931L139.324 115.189C135.934 118.872 130.066 118.872 126.676 115.189L96.3731 82.3931C92.68 78.7099 90.5553 74.1185 89.9988 69.3253C89.7458 67.0044 89.847 64.6834 90.3023 62.413C90.5553 61.0002 90.96 59.6379 91.5671 58.2757C92.8318 54.9961 95.0071 51.9688 98.0425 49.547C98.0425 49.547 98.0763 49.5133 98.1437 49.446C107.149 42.1805 120.504 43.8456 128.649 51.9688L133 56.3079L137.351 51.9688C145.496 43.8456 158.851 42.1805 167.856 49.446C167.856 49.446 167.89 49.4797 167.957 49.547C170.993 51.9688 173.168 54.9961 174.483 58.2757C175.04 59.6379 175.445 61.0002 175.698 62.413C176.153 64.6834 176.254 67.0044 176.001 69.3253Z" fill="#F58438"></path></svg> 