<?xml version="1.0" encoding="UTF-8"?> <svg xmlns="http://www.w3.org/2000/svg" xmlns:xlink="http://www.w3.org/1999/xlink" version="1.1" id="Layer_1" x="0px" y="0px" viewBox="0 0 135 86" style="enable-background:new 0 0 135 86;" xml:space="preserve"> <style type="text/css"> .st0{fill:#C9C9C9;stroke:#9B9B9B;stroke-width:3.68;stroke-linecap:round;stroke-linejoin:round;} .st1{fill:none;stroke:#9B9B9B;stroke-width:3.68;stroke-linecap:round;stroke-linejoin:round;} .st2{fill:#F58438;stroke:#F58438;stroke-width:3.68;stroke-linecap:round;stroke-linejoin:round;} .st3{fill:#FFFFFF;} </style> <path class="st0" d="M50.6,22.3c2.9,0,5.2,2.4,5.2,5.2V9.8c0-2.3,1.9-4.2,4.2-4.2c2.3,0,4.2,1.9,4.2,4.2V6.2c0-2.3,1.9-4.2,4.2-4.2 c2.3,0,4.2,1.9,4.2,4.2v5c0-2.3,1.9-4.2,4.2-4.2s4.2,1.9,4.2,4.2v7.5c0-2.3,1.9-4.2,4.2-4.2s4.2,1.9,4.2,4.2v27.5 c0,6.9-3.2,13.1-8.3,17.1v5.9H55.8v-4.4C49.5,61,45.4,54.1,45.4,46.2V27.6C45.4,24.7,47.7,22.3,50.6,22.3z"></path> <path class="st1" d="M55.8,32.5v-4.9"></path> <path class="st1" d="M64.1,28.5V9.8"></path> <path class="st1" d="M72.4,30.1V11.3"></path> <path class="st1" d="M80.8,31.9V18.7"></path> <path class="st2" d="M54.2,69.2h28.2c1.1,0,1.9,0.9,1.9,1.9v10.6c0,1.1-0.9,1.9-1.9,1.9H54.2c-1.1,0-1.9-0.9-1.9-1.9V71.2 C52.2,70.1,53.1,69.2,54.2,69.2z"></path> <path class="st3" d="M67,40.3c-7.8-8.2-16.2,3.4-7.4,12l7.4,7.2l7.4-7.2C83.2,43.7,74.8,32.1,67,40.3z"></path> </svg> 